<svg width="335" height="196" viewBox="0 0 335 196" fill="none" xmlns="http://www.w3.org/2000/svg">
<g clip-path="url(#clip0_5047_19236)">
<path d="M0 10C0 4.47715 4.47715 0 10 0H325C330.523 0 335 4.47715 335 10V186C335 191.523 330.523 196 325 196H9.99999C4.47714 196 0 191.523 0 186V10Z" fill="#343493"/>
<g clip-path="url(#clip1_5047_19236)">
<ellipse opacity="0.25" cx="489.619" cy="-84.587" rx="439.5" ry="286" transform="rotate(12.0126 489.619 -84.587)" fill="#051438" fill-opacity="0.25"/>
<ellipse opacity="0.25" cx="44.8143" cy="21.4017" rx="199.5" ry="398" transform="rotate(26.3863 44.8143 21.4017)" fill="#051438" fill-opacity="0.15"/>
<g style="mix-blend-mode:soft-light" opacity="0.25">
<path d="M353.873 112.787C331.847 138.567 301.564 155.914 268.18 161.871C245.022 166.005 221.367 164.48 199.171 157.626C198.414 157.393 197.595 157.712 197.202 158.4L162.775 218.671C161.071 221.654 158.523 224.124 155.308 225.338C149.528 227.522 144.49 228.176 136.636 227.961C135.31 227.926 133.994 227.696 132.737 227.275C124.647 224.569 120.102 221.862 114.492 215.954C113.552 214.965 112.82 213.795 112.334 212.521C109.114 204.051 108.534 198.229 109.625 189.697C109.962 187.05 110.857 184.61 112.205 182.308C130.088 151.767 262.542 -74.546 262.542 -77.2248C262.542 -80.0984 220.868 -74.3513 220.868 -74.3513C190.935 -68.5874 178.544 -65.9723 166.26 -44.179L105.906 62.141L103.032 57.8307C93.8291 25.1977 94.5426 -10.0756 108.136 -41.1392C121.729 -72.2012 145.672 -97.5898 175.888 -112.98C206.105 -128.371 240.725 -132.809 273.847 -125.542C306.969 -118.272 336.548 -99.745 357.54 -73.1176C378.533 -46.4902 389.64 -13.4074 388.971 20.4912C388.303 54.3898 375.899 87.0077 353.873 112.787Z" fill="white"/>
<path d="M42.3591 -94.5003V-59.4503C42.3591 -55.6938 45.475 -52.5652 49.2119 -52.5652H77.8671C81.6058 -52.5652 84.7199 -55.6938 84.7199 -59.4503V-94.5003H119.605C123.344 -94.5003 126.458 -97.6306 126.458 -101.385V-130.178C126.458 -133.935 123.344 -137.063 119.605 -137.689H84.7199V-172.115C84.7199 -172.741 84.7199 -172.741 84.7199 -173.367C84.7199 -173.993 84.72 -173.993 84.0971 -174.619C82.8515 -177.122 80.3601 -179 77.8671 -179H49.2119C45.475 -179 42.3591 -175.87 42.3591 -172.115V-137.689H7.47395C3.73697 -137.689 0.62283 -134.561 0 -130.804C0 -130.804 0 -130.804 0 -130.178V-101.385C0 -100.759 0 -100.135 0 -99.5089C0.62283 -96.3785 3.73699 -94.5003 6.85114 -94.5003H42.3591Z" fill="white"/>
</g>
</g>
</g>
<defs>
<clipPath id="clip0_5047_19236">
<path d="M0 10C0 4.47715 4.47715 0 10 0H325C330.523 0 335 4.47715 335 10V186C335 191.523 330.523 196 325 196H9.99999C4.47714 196 0 191.523 0 186V10Z" fill="white"/>
</clipPath>
<clipPath id="clip1_5047_19236">
<rect width="335" height="196" fill="white"/>
</clipPath>
</defs>
</svg>
