<svg width="640" height="900" viewBox="0 0 640 900" fill="none" xmlns="http://www.w3.org/2000/svg">
<g clip-path="url(#clip0_3970_25619)">
<rect width="640" height="900" fill="#677597"/>
<g style="mix-blend-mode:luminosity" opacity="0.16">
<path d="M-187.065 93.3571V140.377C-187.065 145.416 -182.804 149.613 -177.693 149.613H-138.501C-133.387 149.613 -129.128 145.416 -129.128 140.377V93.3571H-81.4156C-76.3023 93.3571 -72.043 89.1577 -72.043 84.1206V45.495C-72.043 40.4558 -76.3023 36.2586 -81.4156 35.4187H-129.128V-10.7635C-129.128 -11.6034 -129.128 -11.6034 -129.128 -12.4433C-129.128 -13.2832 -129.128 -13.2832 -129.98 -14.1231C-131.684 -17.4804 -135.091 -20 -138.501 -20H-177.693C-182.804 -20 -187.065 -15.8006 -187.065 -10.7635V35.4187H-234.778C-239.889 35.4187 -244.148 39.6159 -245 44.6552C-245 44.6552 -245 44.6552 -245 45.495V84.1206C-245 84.9605 -245 85.7981 -245 86.638C-244.148 90.8374 -239.889 93.3571 -235.63 93.3571H-187.065Z" fill="url(#paint0_linear_3970_25619)"/>
<path d="M238.957 371.441C208.832 406.025 167.413 429.296 121.753 437.288C90.0812 442.834 57.7271 440.787 27.3706 431.593C26.3351 431.28 25.2146 431.708 24.6773 432.631L-22.4084 513.485C-24.739 517.486 -28.2244 520.801 -32.6214 522.429C-40.5268 525.358 -47.4174 526.236 -58.1585 525.948C-59.9724 525.901 -61.7725 525.592 -63.4923 525.027C-74.5571 521.397 -80.7726 517.766 -88.4461 509.84C-89.7319 508.513 -90.733 506.944 -91.3965 505.235C-95.8004 493.873 -96.5949 486.062 -95.1024 474.616C-94.6409 471.065 -93.4171 467.791 -91.5733 464.704C-67.1155 423.732 114.043 120.132 114.043 116.538C114.043 112.683 57.0452 120.393 57.0452 120.393C16.106 128.125 -0.841339 131.634 -17.6418 160.87L-100.188 303.499L-104.119 297.716C-116.706 253.939 -115.73 206.62 -97.139 164.947C-78.5477 123.278 -45.8009 89.2184 -4.47375 68.5726C36.8534 47.9245 84.2032 41.971 129.505 51.7209C174.807 61.473 215.261 86.3272 243.971 122.048C272.684 157.769 287.875 202.15 286.961 247.625C286.047 293.1 269.081 336.858 238.957 371.441Z" fill="url(#paint1_linear_3970_25619)"/>
</g>
<g style="mix-blend-mode:luminosity" opacity="0.16">
<path d="M480.79 46.9344V59.7659C480.79 61.1411 481.952 62.2865 483.345 62.2865H494.027C495.421 62.2865 496.582 61.1411 496.582 59.7659V46.9344H509.586C510.98 46.9344 512.141 45.7885 512.141 44.4139V33.8732C512.141 32.498 510.98 31.3526 509.586 31.1234H496.582V18.5206C496.582 18.2914 496.582 18.2914 496.582 18.0622C496.582 17.833 496.582 17.833 496.349 17.6038C495.885 16.6876 494.956 16 494.027 16H483.345C481.952 16 480.79 17.146 480.79 18.5206V31.1234H467.786C466.393 31.1234 465.232 32.2688 465 33.644C465 33.644 465 33.644 465 33.8732V44.4139C465 44.6431 465 44.8717 465 45.1009C465.232 46.2468 466.393 46.9344 467.554 46.9344H480.79Z" fill="url(#paint2_linear_3970_25619)"/>
<path d="M596.906 122.822C588.695 132.26 577.406 138.61 564.961 140.791C556.329 142.304 547.51 141.746 539.236 139.237C538.954 139.152 538.649 139.268 538.502 139.52L525.669 161.585C525.034 162.677 524.084 163.581 522.885 164.025C520.73 164.825 518.852 165.064 515.925 164.986C515.43 164.973 514.94 164.889 514.471 164.735C511.455 163.744 509.761 162.753 507.67 160.59C507.319 160.228 507.046 159.8 506.866 159.333C505.665 156.233 505.449 154.101 505.856 150.978C505.981 150.009 506.315 149.115 506.817 148.273C513.484 137.092 562.86 54.2411 562.86 53.2604C562.86 52.2084 547.324 54.3124 547.324 54.3124C536.166 56.4225 531.547 57.3799 526.968 65.3582L504.469 104.281L503.398 102.703C499.967 90.7562 500.233 77.8431 505.3 66.471C510.368 55.0995 519.293 45.805 530.557 40.1709C541.821 34.5362 554.726 32.9115 567.074 35.5722C579.421 38.2335 590.447 45.016 598.272 54.764C606.098 64.512 610.238 76.6233 609.989 89.0332C609.74 101.443 605.116 113.384 596.906 122.822Z" fill="url(#paint3_linear_3970_25619)"/>
</g>
<g style="mix-blend-mode:luminosity" opacity="0.16">
<path d="M425.483 621.827V642.495C425.483 644.71 427.357 646.555 429.605 646.555H446.844C449.093 646.555 450.966 644.71 450.966 642.495V621.827H471.953C474.202 621.827 476.075 619.981 476.075 617.767V600.789C476.075 598.574 474.202 596.729 471.953 596.36H450.966V576.06C450.966 575.691 450.966 575.691 450.966 575.322C450.966 574.952 450.966 574.952 450.591 574.583C449.842 573.108 448.343 572 446.844 572H429.605C427.357 572 425.483 573.846 425.483 576.06V596.36H404.496C402.248 596.36 400.375 598.205 400 600.42C400 600.42 400 600.42 400 600.789V617.767C400 618.136 400 618.505 400 618.874C400.375 620.72 402.248 621.827 404.122 621.827H425.483Z" fill="url(#paint4_linear_3970_25619)"/>
<path d="M612.868 744.062C599.618 759.264 581.4 769.493 561.316 773.006C547.385 775.443 533.154 774.544 519.802 770.502C519.347 770.365 518.854 770.553 518.617 770.959L497.907 806.499C496.882 808.258 495.349 809.715 493.415 810.43C489.937 811.718 486.907 812.104 482.182 811.977C481.384 811.956 480.593 811.821 479.836 811.572C474.969 809.977 472.235 808.38 468.86 804.896C468.295 804.314 467.854 803.624 467.562 802.872C465.625 797.878 465.276 794.445 465.932 789.414C466.135 787.853 466.674 786.414 467.485 785.057C478.242 767.047 557.925 633.596 557.925 632.017C557.925 630.322 532.854 633.711 532.854 633.711C514.847 637.11 507.393 638.652 500.003 651.503L463.695 714.197L461.966 711.656C456.43 692.413 456.859 671.613 465.037 653.296C473.214 634.979 487.618 620.008 505.795 610.933C523.973 601.857 544.8 599.24 564.726 603.526C584.652 607.812 602.446 618.737 615.074 634.439C627.703 650.14 634.385 669.648 633.983 689.637C633.581 709.627 626.119 728.861 612.868 744.062Z" fill="url(#paint5_linear_3970_25619)"/>
</g>
</g>
<defs>
<linearGradient id="paint0_linear_3970_25619" x1="-484.829" y1="-271.885" x2="49.5631" y2="246.239" gradientUnits="userSpaceOnUse">
<stop stop-color="#121483"/>
<stop offset="1" stop-color="#FA8701"/>
</linearGradient>
<linearGradient id="paint1_linear_3970_25619" x1="-112.512" y1="286.575" x2="287" y2="286.575" gradientUnits="userSpaceOnUse">
<stop stop-color="#121483"/>
<stop offset="1" stop-color="#FA8701" stop-opacity="0.93"/>
</linearGradient>
<linearGradient id="paint2_linear_3970_25619" x1="399.633" y1="-52.738" x2="545.46" y2="88.4747" gradientUnits="userSpaceOnUse">
<stop stop-color="#121483"/>
<stop offset="1" stop-color="#FA8701"/>
</linearGradient>
<linearGradient id="paint3_linear_3970_25619" x1="501.11" y1="99.6624" x2="610" y2="99.6624" gradientUnits="userSpaceOnUse">
<stop stop-color="#121483"/>
<stop offset="1" stop-color="#FA8701" stop-opacity="0.93"/>
</linearGradient>
<linearGradient id="paint4_linear_3970_25619" x1="294.511" y1="461.281" x2="529.414" y2="689.183" gradientUnits="userSpaceOnUse">
<stop stop-color="#121483"/>
<stop offset="1" stop-color="#FA8701"/>
</linearGradient>
<linearGradient id="paint5_linear_3970_25619" x1="458.275" y1="706.758" x2="634" y2="706.758" gradientUnits="userSpaceOnUse">
<stop stop-color="#121483"/>
<stop offset="1" stop-color="#FA8701" stop-opacity="0.93"/>
</linearGradient>
<clipPath id="clip0_3970_25619">
<rect width="640" height="900" fill="white"/>
</clipPath>
</defs>
</svg>
